<svg width="30" height="27" viewBox="0 0 30 27" fill="none" xmlns="http://www.w3.org/2000/svg">
<path d="M27.6316 22.1053C28.2398 22.1056 28.8246 22.3399 29.2648 22.7596C29.705 23.1793 29.9669 23.7523 29.9961 24.3599C30.0253 24.9674 29.8197 25.5629 29.4218 26.0229C29.024 26.483 28.4643 26.7724 27.8589 26.8311L27.6316 26.8421H2.36842C1.76018 26.8418 1.17538 26.6075 0.735179 26.1878C0.294981 25.768 0.0331389 25.195 0.00390906 24.5875C-0.0253208 23.98 0.180303 23.3845 0.578172 22.9244C0.976041 22.4644 1.53565 22.175 2.14105 22.1163L2.36842 22.1053H27.6316ZM27.6316 11.0526C28.2597 11.0526 28.8621 11.3022 29.3063 11.7463C29.7505 12.1905 30 12.7929 30 13.4211C30 14.0492 29.7505 14.6516 29.3063 15.0958C28.8621 15.5399 28.2597 15.7895 27.6316 15.7895H2.36842C1.74028 15.7895 1.13786 15.5399 0.693695 15.0958C0.249529 14.6516 0 14.0492 0 13.4211C0 12.7929 0.249529 12.1905 0.693695 11.7463C1.13786 11.3022 1.74028 11.0526 2.36842 11.0526H27.6316ZM27.6316 0C28.2597 0 28.8621 0.249529 29.3063 0.693695C29.7505 1.13786 30 1.74028 30 2.36842C30 2.99657 29.7505 3.59898 29.3063 4.04315C28.8621 4.48731 28.2597 4.73684 27.6316 4.73684H2.36842C1.74028 4.73684 1.13786 4.48731 0.693695 4.04315C0.249529 3.59898 0 2.99657 0 2.36842C0 1.74028 0.249529 1.13786 0.693695 0.693695C1.13786 0.249529 1.74028 0 2.36842 0H27.6316Z" fill="#F4F3EE"/>
</svg>
